<svg width="148" height="171" viewBox="0 0 148 171" fill="none" xmlns="http://www.w3.org/2000/svg">
<g filter="url(#filter0_d_3_1371)">
<ellipse cx="73.9995" cy="91.0533" rx="64.9995" ry="64.6824" fill="white"/>
</g>
<path fill-rule="evenodd" clip-rule="evenodd" d="M35.4448 143.135C18.6645 130.81 8.13196 110.684 9.05641 88.3863C9.24653 83.8007 9.91197 79.3463 11.0035 75.0682C11.67 75.315 12.3561 75.6202 13.0526 75.9958C18.4586 78.9036 15.1025 86.3884 15.1025 86.3884C15.1025 86.3884 27.9243 84.1257 36.6331 93.4271C45.3621 102.678 33.9411 112.856 33.9411 112.856C33.9411 112.856 35.5 113.359 39.1671 119.722C42.7836 126.065 33.2441 134.48 33.2441 134.48C33.2441 134.48 34.2658 133.543 36.9799 136.724C38.0748 138.007 37.0533 140.554 35.4448 143.135Z" fill="#0070F0" fill-opacity="0.5"/>
<path fill-rule="evenodd" clip-rule="evenodd" d="M20.1725 127.316C12.6316 116.251 8.46004 102.77 9.05641 88.3858C9.11921 86.8712 9.23386 85.3709 9.39858 83.8866C11.7605 85.0854 14.1666 86.7497 16.378 89.0572C25.1474 98.2075 14.6455 104.78 14.6455 104.78C14.6455 104.78 19.5536 103.81 22.0081 113.78C23.741 120.818 21.5881 125.293 20.1725 127.316Z" fill="#0070F0" fill-opacity="0.5"/>
<path fill-rule="evenodd" clip-rule="evenodd" d="M137.94 102.737C132.217 133.967 104.105 157.026 71.3217 155.681C63.3947 155.355 55.858 153.63 48.9423 150.754C51.2147 144.94 56.8023 138.264 70.5195 139.148C70.5195 139.148 62.2268 124.832 76.1854 119.667C90.1439 114.452 97.561 126.161 97.561 126.161C97.561 126.161 96.4794 117.776 105.184 117.264C105.184 117.264 101.682 99.0618 124.397 99.7265C124.397 99.7265 132.581 99.7266 137.94 102.737Z" fill="#0070F0" fill-opacity="0.5"/>
<path opacity="0.32" d="M124.785 57.8894C124.452 57.8894 124.16 58.1796 124.16 58.5114C124.16 58.6357 124.202 58.7187 124.243 58.8016L107.91 78.7453L108.243 78.9941L124.535 59.0918C124.618 59.1333 124.702 59.1333 124.785 59.1333C125.118 59.1333 125.41 58.8431 125.41 58.5114C125.41 58.1796 125.118 57.8894 124.785 57.8894Z" fill="url(#paint0_linear_3_1371)"/>
<path opacity="0.63" d="M117.556 77.0922C117.264 77.0922 117.056 77.2995 117.056 77.5897C117.056 77.6727 117.097 77.7556 117.097 77.8385L90.8475 109.889L91.0975 110.097L117.347 78.0458C117.389 78.0873 117.472 78.0873 117.556 78.0873C117.847 78.0873 118.056 77.88 118.056 77.5897C118.056 77.2995 117.847 77.0922 117.556 77.0922Z" fill="url(#paint1_linear_3_1371)"/>
<path opacity="0.65" fill-rule="evenodd" clip-rule="evenodd" d="M137.071 75.3396L116.81 100.107L116.435 99.8171L136.931 74.7906C136.978 74.9733 137.025 75.1563 137.071 75.3396Z" fill="url(#paint2_linear_3_1371)"/>
<path opacity="0.63" d="M67.3095 31.4659C66.9345 31.4659 66.6012 31.7976 66.6012 32.1708C66.6012 32.2952 66.6428 32.4196 66.6845 32.5025L29.3514 78.1534L29.7264 78.4436L67.0595 32.8342C67.1428 32.8757 67.2262 32.8757 67.3512 32.8757C67.7262 32.8757 68.0595 32.544 68.0595 32.1708C68.0595 31.7976 67.7262 31.4659 67.3095 31.4659Z" fill="url(#paint3_linear_3_1371)"/>
<path opacity="0.35" d="M58.8964 26.549C58.563 26.549 58.313 26.7977 58.313 27.1294C58.313 27.2124 58.3547 27.2953 58.3964 27.3782L41.6465 47.8195L41.9381 48.0683L58.6464 27.6684C58.7297 27.7099 58.813 27.7099 58.8964 27.7099C59.2297 27.7099 59.4797 27.4611 59.4797 27.1294C59.4797 26.7977 59.2297 26.549 58.8964 26.549Z" fill="url(#paint4_linear_3_1371)"/>
<path opacity="0.63" fill-rule="evenodd" clip-rule="evenodd" d="M9.02783 89.4275C9.03528 89.1362 9.04469 88.8444 9.05606 88.5523L36.4829 55.0462L36.4829 55.0462C36.4412 54.9218 36.3996 54.7974 36.3996 54.6731C36.3996 54.217 36.7746 53.8853 37.1912 53.8853C37.6079 53.8853 37.9829 54.217 37.9829 54.6731C37.9829 55.1292 37.6079 55.4609 37.1912 55.4609C37.1079 55.4609 36.9829 55.4194 36.8996 55.3779L9.02783 89.4275Z" fill="url(#paint5_linear_3_1371)"/>
<path opacity="0.9" fill-rule="evenodd" clip-rule="evenodd" d="M64.407 155.033C64.214 155.005 64.0213 154.975 63.8289 154.945L99.0466 111.892C99.0049 111.809 98.9632 111.685 98.9632 111.56C98.9632 111.146 99.2966 110.814 99.7132 110.814C100.13 110.814 100.463 111.146 100.463 111.56C100.463 111.975 100.13 112.307 99.7132 112.307C99.6299 112.307 99.5049 112.307 99.4216 112.265L64.407 155.033Z" fill="url(#paint6_linear_3_1371)"/>
<path d="M128.601 9.38269C129.76 9.12217 130.85 10.0141 130.851 11.2137C130.851 13.3447 130.767 16.5907 130.362 19.9276C129.957 23.269 129.231 26.6808 127.957 29.1561C127.135 30.7416 125.478 32.9944 123.314 35.5819C121.154 38.1658 118.498 41.0725 115.686 43.9618C110.058 49.7433 103.818 55.4442 99.6875 58.3563L99.6865 58.3573C99.0128 58.8415 98.073 58.8045 97.4355 58.2821L97.4346 58.2811L89.1016 51.5233H89.1025C88.4653 51.001 88.2381 50.1034 88.5771 49.3163C90.5693 44.6908 94.8941 37.4478 99.4336 30.7909C101.702 27.4642 104.022 24.2878 106.127 21.662C108.235 19.0326 110.119 16.9672 111.517 15.8524L111.518 15.8514C113.676 14.1128 116.887 12.7126 120.1 11.6366C123.308 10.5621 126.498 9.81717 128.598 9.38269H128.601Z" fill="white" stroke="#0070F0" stroke-width="0.409752"/>
<path d="M97.7208 32.8997L101.971 36.3411L102.596 35.5533L98.2625 32.029C98.0958 32.3607 97.8875 32.6509 97.7208 32.8997Z" fill="#0070F0"/>
<path d="M130.303 9.59677C129.928 13.2455 128.678 22.9479 124.97 29.1259C120.762 36.1746 99.5535 53.9623 95.7618 57.155L97.2618 58.3574C97.9702 58.9379 99.0118 58.9793 99.7618 58.4403C108.053 52.6769 124.803 35.6771 128.095 29.2503C130.678 24.2332 131.012 15.4845 131.012 11.2138C131.053 10.5504 130.762 10.0114 130.303 9.59677Z" fill="#0070F0"/>
<path d="M107.845 40.4868C107.053 41.4404 105.678 41.5648 104.72 40.8185C103.762 40.0307 103.637 38.6624 104.387 37.7088C105.178 36.7551 106.553 36.6307 107.512 37.3771C108.512 38.1234 108.637 39.5331 107.845 40.4868Z" fill="#0070F0"/>
<path d="M116.76 31.946C120.005 31.946 122.635 29.3285 122.635 26.0997C122.635 22.8708 120.005 20.2534 116.76 20.2534C113.515 20.2534 110.885 22.8708 110.885 26.0997C110.885 29.3285 113.515 31.946 116.76 31.946Z" fill="#0070F0"/>
<path d="M116.763 30.9917C119.479 30.9917 121.68 28.8012 121.68 26.099C121.68 23.3969 119.479 21.2064 116.763 21.2064C114.048 21.2064 111.847 23.3969 111.847 26.099C111.847 28.8012 114.048 30.9917 116.763 30.9917Z" fill="white"/>
<path d="M103.64 44.3011C103.14 44.8815 102.265 44.9645 101.682 44.5084C101.099 44.0108 101.015 43.1401 101.474 42.5596C101.974 41.9791 102.849 41.8962 103.432 42.3523C104.057 42.8499 104.14 43.7206 103.64 44.3011Z" fill="#0070F0"/>
<path d="M89.2601 47.785C88.9236 48.4787 88.6803 48.6334 88.4269 49.2362C88.2411 49.6785 88.568 50.0942 88.427 50.4801L88.8435 51.5085L98.4268 58.7728C99.2601 58.2752 100.26 58.1923 101.302 57.363L89.2601 47.785Z" fill="url(#paint7_linear_3_1371)"/>
<path d="M89.1346 47.4945C88.8363 48.1093 88.5707 48.6917 88.3378 49.2359C88.1152 49.756 88.5007 50.0341 88.3378 50.4798L88.8428 51.5637L97.2382 58.3578L98.426 58.7724C98.894 58.493 99.4432 58.7418 99.9826 58.3578C100.404 58.058 100.844 57.7263 101.301 57.3627L89.1346 47.4945Z" fill="#0070F0"/>
<path d="M98.3864 54.9993C97.2198 55.9944 96.3448 56.7407 95.8031 57.1968L96.3031 57.6115L97.3031 58.3993L98.0113 58.7725C98.428 58.7725 98.8447 58.9798 99.8447 58.4822C100.095 58.3164 100.303 58.1505 100.553 57.9846C100.553 57.9846 100.595 57.9846 100.595 57.9432C100.761 57.8188 100.928 57.6944 101.053 57.57C101.136 57.4871 101.22 57.4456 101.303 57.4042L101.345 57.3627L98.3864 54.9993Z" fill="#0070F0"/>
<path d="M92.3884 42.1864C92.3884 42.1864 90.0551 40.8181 88.9718 38.206L86.5968 41.1084C86.5968 41.1084 90.3051 43.8035 90.5134 45.5864C91.0551 44.5084 91.6801 43.3889 92.3884 42.1864Z" fill="#0070F0"/>
<path d="M128.623 9.4823C129.716 9.23663 130.748 10.0776 130.748 11.2137C130.748 13.3424 130.665 16.5838 130.261 19.9149C129.856 23.253 129.132 26.6505 127.866 29.1093C127.049 30.684 125.399 32.9298 123.236 35.5165C121.078 38.098 118.423 41.0025 115.611 43.8905C109.985 49.6706 103.751 55.3658 99.6289 58.2723L99.627 58.2743C98.9915 58.731 98.103 58.6962 97.501 58.203L97.5 58.202L89.167 51.4442H89.168C88.5661 50.951 88.3508 50.1027 88.6719 49.3573C90.66 44.741 94.98 37.5039 99.5186 30.8485C101.786 27.5235 104.104 24.3496 106.207 21.7264C108.315 19.0976 110.193 17.0396 111.581 15.9325L111.582 15.9315C113.726 14.2046 116.923 12.8083 120.133 11.7333C122.935 10.7948 125.724 10.1087 127.782 9.66101L128.618 9.48328L128.623 9.4823Z" stroke="#0070F0" stroke-width="0.614629"/>
<path d="M84.7595 33.8853C86.0763 33.3072 87.3278 33.5457 88.1501 34.2153L88.155 34.2192C89.0124 34.887 89.478 36.0484 89.1687 37.4341V37.4351C88.916 38.5848 88.5712 39.7203 88.1394 40.6284L87.949 41.0034C87.5564 41.7262 86.7321 42.6734 85.5769 43.8022C84.4745 44.8794 83.0917 46.1005 81.5466 47.4243L76.449 43.2739C77.4417 41.5392 78.3723 39.9589 79.2156 38.6704C80.1005 37.3184 80.8712 36.3165 81.4998 35.7886L81.5017 35.7866C82.3437 35.0685 83.521 34.4194 84.7576 33.8862L84.7595 33.8853Z" fill="white" stroke="#0070F0" stroke-width="0.614629"/>
<path d="M76.8858 41.9377C76.6358 42.3937 76.3442 42.8913 76.0525 43.3474L81.5524 47.8254C81.9691 47.4523 82.3858 47.0791 82.8024 46.7474L76.8858 41.9377Z" fill="#0070F0"/>
<path d="M110.301 41.8141L109.676 42.6019L113.926 46.0433C114.176 45.7945 114.384 45.5458 114.634 45.3385L110.301 41.8141Z" fill="#0070F0"/>
<path d="M96.0117 46.9875C97.3285 46.4095 98.5799 46.648 99.4023 47.3176L99.4072 47.3215C100.265 47.9893 100.73 49.1507 100.421 50.5364V50.5374C100.133 51.8488 99.7245 53.1417 99.2041 54.0999C98.7898 54.8262 97.9531 55.7756 96.7979 56.9045C95.6956 57.9817 94.323 59.2024 92.7979 60.5256L87.7012 56.3762C88.6939 54.6415 89.6245 53.0612 90.4678 51.7727C91.3527 50.4207 92.1234 49.4188 92.752 48.8909L92.7539 48.8889C93.5959 48.1708 94.7732 47.5217 96.0098 46.9885L96.0117 46.9875Z" fill="white" stroke="#0070F0" stroke-width="0.614629"/>
<path d="M98.9687 51.1426C97.4687 53.9621 91.8854 57.5694 90.0521 58.7303L92.8021 60.9693C96.0104 58.1913 98.5937 55.7865 99.4271 54.2938C99.9687 53.2987 100.385 51.9719 100.677 50.645C100.927 49.567 100.719 48.6133 100.26 47.867C100.135 48.6133 99.7604 49.6499 98.9687 51.1426Z" fill="#0070F0"/>
<path d="M88.138 55.0403C87.888 55.4964 87.5964 55.994 87.3047 56.4501L92.8046 60.9281C93.2213 60.5549 93.638 60.1817 94.0546 59.85L88.138 55.0403Z" fill="#0070F0"/>
<path d="M39.8849 97.9547L35.2183 94.1815L76.5096 43.7209L81.1763 47.4941L39.8849 97.9547Z" fill="url(#paint8_linear_3_1371)"/>
<path d="M29.9286 136.93L25.262 133.157L87.7615 56.8236L92.3865 60.5968L29.9286 136.93Z" fill="url(#paint9_linear_3_1371)"/>
<path d="M105.928 53.1331C105.928 53.1331 107.761 55.1233 110.553 55.6624L108.178 58.5648C108.178 58.5648 104.761 55.4965 102.969 55.6209C103.928 54.8746 104.886 54.0038 105.928 53.1331Z" fill="#0070F0"/>
<path d="M111.177 55.2804C112.502 54.6991 113.748 54.9054 114.562 55.6056L114.568 55.6105C115.389 56.2789 115.858 57.4465 115.586 58.838C115.298 60.1439 114.89 61.3965 114.367 62.3986C113.974 63.1215 113.15 64.0683 112 65.1974C110.903 66.2743 109.531 67.4952 108.006 68.8185L102.909 64.6691C103.901 62.9347 104.822 61.3641 105.656 60.0802C106.529 58.7352 107.29 57.7319 107.921 57.1818C108.763 56.4638 109.939 55.8146 111.176 55.2814L111.177 55.2804Z" fill="white" stroke="#0070F0" stroke-width="0.614629"/>
<path d="M109.218 68.1427C108.801 68.5159 108.468 68.7647 108.01 69.1378L102.468 64.7427C102.76 64.2452 103.01 63.7891 103.301 63.333L109.218 68.1427Z" fill="#0070F0"/>
<path d="M54.2197 124.532L58.8864 128.305L107.553 68.8886L102.886 65.1154L54.2197 124.532Z" fill="url(#paint10_linear_3_1371)"/>
<path d="M128.554 9.18233C126.929 9.51404 124.679 10.0531 122.304 10.7579L130.804 17.6408C131.013 15.153 131.054 12.8726 131.054 11.214C131.054 9.88721 129.846 8.89209 128.554 9.18233Z" fill="#0070F0"/>
<path d="M100.554 57.9015C100.512 57.943 100.512 57.943 100.554 57.9015C100.679 57.8186 100.845 57.6942 101.012 57.5284C100.845 57.6942 100.679 57.8186 100.554 57.9015Z" fill="url(#paint11_linear_3_1371)"/>
<path d="M96.68 57.9019L97.2633 58.358L96.2633 57.5702L96.68 57.9019Z" fill="url(#paint12_linear_3_1371)"/>
<path d="M130.678 11.122C130.678 11.0833 130.678 11.0446 130.678 11.006C130.678 10.9673 130.678 10.9286 130.678 10.89C130.678 10.8513 130.636 10.8126 130.636 10.7353C130.636 10.6966 130.636 10.6966 130.636 10.6579C130.636 10.6193 130.595 10.5419 130.553 10.5032V10.4646C130.511 10.3872 130.47 10.3486 130.47 10.3099C130.428 10.2326 130.386 10.1939 130.345 10.1552C130.261 10.0392 130.136 9.96187 130.053 9.84586C129.886 11.238 129.595 13.5582 129.053 16.1878L130.511 17.3092C130.553 17.0385 130.553 16.7292 130.595 16.4585C130.636 15.8784 130.678 15.337 130.678 14.8343V14.7956C130.72 14.2929 130.72 13.7902 130.72 13.3262C130.72 13.2875 130.72 13.2488 130.72 13.2488C130.72 13.0168 130.72 12.8235 130.72 12.5914C130.72 12.3981 130.72 12.2047 130.72 12.0114C130.72 11.9727 130.72 11.934 130.72 11.8954C130.72 11.702 130.72 11.5473 130.72 11.3927C130.678 11.2767 130.678 11.1993 130.678 11.122Z" fill="#0070F0"/>
<path d="M115.467 56.1599C115.259 57.2379 114.675 59.2281 112.884 61.5501C111.009 63.9964 107.592 66.2354 105.676 67.3549L108.009 69.2207C111.217 66.4427 113.8 64.0378 114.634 62.5452C115.175 61.5501 115.592 60.2232 115.884 58.8964C116.092 57.8598 115.925 56.9062 115.467 56.1599Z" fill="#0070F0"/>
<path d="M108.64 68.5158C108.807 68.35 108.89 68.2671 109.057 68.1012C109.057 68.1012 109.223 68.1012 109.265 68.1012L107.182 66.4427C106.64 66.7744 106.14 67.0232 105.723 67.272L108.015 69.1378C108.223 68.9719 108.432 68.6817 108.64 68.5158C108.598 68.5158 108.598 68.4744 108.64 68.5158Z" fill="#0070F0"/>
<path d="M92.8419 60.9281C93.2585 60.5549 93.6752 60.1818 94.0918 59.8501L91.5502 57.7769C90.9669 58.1501 90.4669 58.4818 90.1335 58.6891L92.8419 60.9281Z" fill="#0070F0"/>
<path d="M87.721 38.0826C86.596 40.6948 81.2211 44.4264 79.0961 45.8362L81.5961 47.8679C84.8044 45.0899 87.3877 42.685 88.221 41.1923C88.7627 40.1972 89.1793 38.8704 89.471 37.5436C89.721 36.3826 89.471 35.346 88.8877 34.5582C88.721 35.3046 88.3877 36.4655 87.721 38.0826Z" fill="#0070F0"/>
<path d="M82.1016 47.0947C82.2682 46.9703 82.3684 46.8219 82.535 46.6975C82.535 46.6975 82.5984 46.6228 82.7432 46.706L80.5547 44.882C80.013 45.2551 79.513 45.5868 79.1797 45.8356L81.4513 47.6904C81.6597 47.5246 81.8932 47.2605 82.1016 47.0947C82.0599 47.1361 82.0599 47.0532 82.1016 47.0947Z" fill="#0070F0"/>
<path d="M84.7627 33.8857C86.0795 33.3076 87.3309 33.5461 88.1533 34.2157L88.1582 34.2196C89.0156 34.8874 89.4812 36.0488 89.1719 37.4345V37.4355C88.9191 38.5852 88.5744 39.7207 88.1426 40.6288L87.9521 41.0038C87.5595 41.7266 86.7353 42.6738 85.5801 43.8026C84.4777 44.8798 83.0949 46.1009 81.5498 47.4247L76.4521 43.2743C77.4448 41.5396 78.3754 39.9593 79.2188 38.6708C80.1037 37.3188 80.8744 36.3169 81.5029 35.789L81.5049 35.787C82.3468 35.0689 83.5242 34.4198 84.7607 33.8866L84.7627 33.8857Z" stroke="#0070F0" stroke-width="0.614629"/>
<path d="M96.0117 46.9875C97.3285 46.4095 98.5799 46.648 99.4023 47.3176L99.4072 47.3215C100.265 47.9893 100.73 49.1507 100.421 50.5364V50.5374C100.133 51.8488 99.7245 53.1417 99.2041 54.0999C98.7898 54.8262 97.9531 55.7756 96.7979 56.9045C95.6956 57.9817 94.323 59.2024 92.7979 60.5256L87.7012 56.3762C88.6939 54.6415 89.6245 53.0612 90.4678 51.7727C91.3527 50.4207 92.1234 49.4188 92.752 48.8909L92.7539 48.8889C93.5959 48.1708 94.7732 47.5217 96.0098 46.9885L96.0117 46.9875Z" stroke="#0070F0" stroke-width="0.614629"/>
<path d="M111.174 55.2804C112.498 54.6991 113.744 54.9054 114.559 55.6056L114.565 55.6105C115.386 56.2789 115.854 57.4465 115.583 58.838C115.295 60.1439 114.887 61.3965 114.364 62.3986C113.971 63.1215 113.147 64.0683 111.997 65.1974C110.9 66.2743 109.528 67.4952 108.002 68.8185L102.906 64.6691C103.898 62.9347 104.819 61.3641 105.653 60.0802C106.526 58.7352 107.287 57.7319 107.917 57.1818C108.759 56.4638 109.936 55.8146 111.172 55.2814L111.174 55.2804Z" stroke="#0070F0" stroke-width="0.614629"/>
<defs>
<filter id="filter0_d_3_1371" x="0.804952" y="24.3221" width="146.389" height="145.755" filterUnits="userSpaceOnUse" color-interpolation-filters="sRGB">
<feFlood flood-opacity="0" result="BackgroundImageFix"/>
<feColorMatrix in="SourceAlpha" type="matrix" values="0 0 0 0 0 0 0 0 0 0 0 0 0 0 0 0 0 0 127 0" result="hardAlpha"/>
<feOffset dy="6.14629"/>
<feGaussianBlur stdDeviation="4.09752"/>
<feColorMatrix type="matrix" values="0 0 0 0 0 0 0 0 0 0 0 0 0 0 0 0 0 0 0.04 0"/>
<feBlend mode="normal" in2="BackgroundImageFix" result="effect1_dropShadow_3_1371"/>
<feBlend mode="normal" in="SourceGraphic" in2="effect1_dropShadow_3_1371" result="shape"/>
</filter>
<linearGradient id="paint0_linear_3_1371" x1="107.899" y1="68.4629" x2="125.415" y2="68.4629" gradientUnits="userSpaceOnUse">
<stop offset="0.2849" stop-color="#0070F0" stop-opacity="0"/>
<stop offset="1" stop-color="white"/>
</linearGradient>
<linearGradient id="paint1_linear_3_1371" x1="90.8829" y1="93.5895" x2="118.075" y2="93.5895" gradientUnits="userSpaceOnUse">
<stop offset="0.2849" stop-color="#0070F0" stop-opacity="0"/>
<stop offset="1" stop-color="white"/>
</linearGradient>
<linearGradient id="paint2_linear_3_1371" x1="116.436" y1="76.7289" x2="155.015" y2="76.7289" gradientUnits="userSpaceOnUse">
<stop offset="0.2849" stop-color="#0070F0" stop-opacity="0"/>
<stop offset="1" stop-color="white"/>
</linearGradient>
<linearGradient id="paint3_linear_3_1371" x1="29.3328" y1="54.9625" x2="68.0397" y2="54.9625" gradientUnits="userSpaceOnUse">
<stop offset="0.2849" stop-color="#0070F0" stop-opacity="0"/>
<stop offset="1" stop-color="white"/>
</linearGradient>
<linearGradient id="paint4_linear_3_1371" x1="41.6692" y1="37.2972" x2="59.4916" y2="37.2972" gradientUnits="userSpaceOnUse">
<stop offset="0.2849" stop-color="#0070F0" stop-opacity="0"/>
<stop offset="1" stop-color="white"/>
</linearGradient>
<linearGradient id="paint5_linear_3_1371" x1="-4.51974" y1="79.6629" x2="37.9783" y2="79.6629" gradientUnits="userSpaceOnUse">
<stop offset="0.2849" stop-color="#0070F0" stop-opacity="0"/>
<stop offset="1" stop-color="white"/>
</linearGradient>
<linearGradient id="paint6_linear_3_1371" x1="59.8371" y1="135.488" x2="100.459" y2="135.488" gradientUnits="userSpaceOnUse">
<stop offset="0.2849" stop-color="#0070F0" stop-opacity="0"/>
<stop offset="1" stop-color="white"/>
</linearGradient>
<linearGradient id="paint7_linear_3_1371" x1="87.9658" y1="47.6007" x2="101.134" y2="60.5825" gradientUnits="userSpaceOnUse">
<stop stop-color="#0070F0"/>
<stop offset="1" stop-color="#0070F0"/>
</linearGradient>
<linearGradient id="paint8_linear_3_1371" x1="53.3511" y1="99.456" x2="64.925" y2="47.0491" gradientUnits="userSpaceOnUse">
<stop offset="0.2097" stop-color="#0070F0" stop-opacity="0"/>
<stop offset="0.871" stop-color="#0070F0"/>
</linearGradient>
<linearGradient id="paint9_linear_3_1371" x1="51.7461" y1="139.148" x2="69.0165" y2="61.8212" gradientUnits="userSpaceOnUse">
<stop offset="0.2097" stop-color="#0070F0" stop-opacity="0"/>
<stop offset="0.871" stop-color="#0070F0"/>
</linearGradient>
<linearGradient id="paint10_linear_3_1371" x1="75.2624" y1="130.054" x2="88.7968" y2="69.016" gradientUnits="userSpaceOnUse">
<stop offset="0.2097" stop-color="#0070F0" stop-opacity="0"/>
<stop offset="0.871" stop-color="#0070F0"/>
</linearGradient>
<linearGradient id="paint11_linear_3_1371" x1="89.143" y1="46.4134" x2="102.309" y2="59.3923" gradientUnits="userSpaceOnUse">
<stop stop-color="#0070F0"/>
<stop offset="1" stop-color="#0070F0"/>
</linearGradient>
<linearGradient id="paint12_linear_3_1371" x1="96.0538" y1="55.9367" x2="97.4101" y2="59.8074" gradientUnits="userSpaceOnUse">
<stop offset="0.00537634" stop-color="#0070F0"/>
<stop offset="1" stop-color="#0070F0"/>
</linearGradient>
</defs>
</svg>
